<svg width="179" height="46" viewBox="0 0 179 46" fill="none" xmlns="http://www.w3.org/2000/svg">
<path d="M56.9 20C56.46 20 56.12 19.8867 55.88 19.66C55.6533 19.42 55.54 19.08 55.54 18.64V7.26C55.54 6.82 55.6533 6.48667 55.88 6.26C56.12 6.02 56.46 5.9 56.9 5.9H60.78C63.14 5.9 64.96 6.50667 66.24 7.72C67.5333 8.93333 68.18 10.6733 68.18 12.94C68.18 14.0733 68.0133 15.08 67.68 15.96C67.36 16.8267 66.88 17.56 66.24 18.16C65.6133 18.76 64.84 19.22 63.92 19.54C63.0133 19.8467 61.9667 20 60.78 20H56.9ZM58.1 17.88H60.62C61.4467 17.88 62.16 17.78 62.76 17.58C63.3733 17.3667 63.88 17.06 64.28 16.66C64.6933 16.2467 65 15.7333 65.2 15.12C65.4 14.4933 65.5 13.7667 65.5 12.94C65.5 11.2867 65.0933 10.0533 64.28 9.24C63.4667 8.42667 62.2467 8.02 60.62 8.02H58.1V17.88ZM71.7744 20.14C71.3744 20.14 71.0677 20.02 70.8544 19.78C70.641 19.54 70.5344 19.2067 70.5344 18.78V11.44C70.5344 11 70.641 10.6667 70.8544 10.44C71.0677 10.2 71.3744 10.08 71.7744 10.08C72.1744 10.08 72.481 10.2 72.6944 10.44C72.921 10.6667 73.0344 11 73.0344 11.44V18.78C73.0344 19.2067 72.9277 19.54 72.7144 19.78C72.501 20.02 72.1877 20.14 71.7744 20.14ZM71.7744 8.22C71.3077 8.22 70.941 8.10667 70.6744 7.88C70.421 7.64 70.2944 7.31333 70.2944 6.9C70.2944 6.47333 70.421 6.14667 70.6744 5.92C70.941 5.69333 71.3077 5.58 71.7744 5.58C72.2544 5.58 72.621 5.69333 72.8744 5.92C73.1277 6.14667 73.2544 6.47333 73.2544 6.9C73.2544 7.31333 73.1277 7.64 72.8744 7.88C72.621 8.10667 72.2544 8.22 71.7744 8.22ZM76.872 20.16C76.472 20.16 76.1654 20.0533 75.952 19.84C75.7387 19.6133 75.632 19.2933 75.632 18.88V11.32C75.632 10.9067 75.7387 10.5933 75.952 10.38C76.1654 10.1667 76.4654 10.06 76.852 10.06C77.2387 10.06 77.5387 10.1667 77.752 10.38C77.9654 10.5933 78.072 10.9067 78.072 11.32V12.68L77.852 12.18C78.1454 11.4733 78.5987 10.94 79.212 10.58C79.8387 10.2067 80.5454 10.02 81.332 10.02C82.1187 10.02 82.7654 10.1667 83.272 10.46C83.7787 10.7533 84.1587 11.2 84.412 11.8C84.6654 12.3867 84.792 13.1333 84.792 14.04V18.88C84.792 19.2933 84.6854 19.6133 84.472 19.84C84.2587 20.0533 83.952 20.16 83.552 20.16C83.152 20.16 82.8387 20.0533 82.612 19.84C82.3987 19.6133 82.292 19.2933 82.292 18.88V14.16C82.292 13.4 82.1454 12.8467 81.852 12.5C81.572 12.1533 81.132 11.98 80.532 11.98C79.7987 11.98 79.212 12.2133 78.772 12.68C78.3454 13.1333 78.132 13.74 78.132 14.5V18.88C78.132 19.7333 77.712 20.16 76.872 20.16ZM90.5513 20.2C89.8446 20.2 89.2113 20.0667 88.6513 19.8C88.1046 19.52 87.6713 19.1467 87.3512 18.68C87.0446 18.2133 86.8913 17.6867 86.8913 17.1C86.8913 16.38 87.0779 15.8133 87.4513 15.4C87.8246 14.9733 88.4313 14.6667 89.2713 14.48C90.1113 14.2933 91.2379 14.2 92.6513 14.2H93.6513V15.64H92.6713C91.8446 15.64 91.1846 15.68 90.6913 15.76C90.1979 15.84 89.8446 15.98 89.6313 16.18C89.4313 16.3667 89.3313 16.6333 89.3313 16.98C89.3313 17.42 89.4846 17.78 89.7913 18.06C90.0979 18.34 90.5246 18.48 91.0713 18.48C91.5113 18.48 91.8979 18.38 92.2313 18.18C92.5779 17.9667 92.8513 17.68 93.0513 17.32C93.2513 16.96 93.3513 16.5467 93.3513 16.08V13.78C93.3513 13.1133 93.2046 12.6333 92.9113 12.34C92.6179 12.0467 92.1246 11.9 91.4313 11.9C91.0446 11.9 90.6246 11.9467 90.1713 12.04C89.7313 12.1333 89.2646 12.2933 88.7713 12.52C88.5179 12.64 88.2913 12.6733 88.0913 12.62C87.9046 12.5667 87.7579 12.46 87.6513 12.3C87.5446 12.1267 87.4913 11.94 87.4913 11.74C87.4913 11.54 87.5446 11.3467 87.6513 11.16C87.7579 10.96 87.9379 10.8133 88.1913 10.72C88.8046 10.4667 89.3913 10.2867 89.9513 10.18C90.5246 10.0733 91.0446 10.02 91.5113 10.02C92.4713 10.02 93.2579 10.1667 93.8713 10.46C94.4979 10.7533 94.9646 11.2 95.2713 11.8C95.5779 12.3867 95.7313 13.1467 95.7313 14.08V18.88C95.7313 19.2933 95.6313 19.6133 95.4313 19.84C95.2313 20.0533 94.9446 20.16 94.5713 20.16C94.1979 20.16 93.9046 20.0533 93.6913 19.84C93.4913 19.6133 93.3913 19.2933 93.3913 18.88V17.92H93.5513C93.4579 18.3867 93.2713 18.7933 92.9913 19.14C92.7246 19.4733 92.3846 19.7333 91.9713 19.92C91.5579 20.1067 91.0846 20.2 90.5513 20.2ZM99.5488 20.16C99.1488 20.16 98.8421 20.0533 98.6288 19.84C98.4154 19.6133 98.3088 19.2933 98.3088 18.88V11.32C98.3088 10.9067 98.4154 10.5933 98.6288 10.38C98.8421 10.1667 99.1421 10.06 99.5288 10.06C99.9154 10.06 100.215 10.1667 100.429 10.38C100.642 10.5933 100.749 10.9067 100.749 11.32V12.78L100.529 12.18C100.795 11.5133 101.209 10.9867 101.769 10.6C102.329 10.2133 102.995 10.02 103.769 10.02C104.555 10.02 105.202 10.2067 105.709 10.58C106.215 10.9533 106.569 11.5267 106.769 12.3H106.489C106.755 11.5933 107.195 11.04 107.809 10.64C108.422 10.2267 109.129 10.02 109.929 10.02C110.675 10.02 111.289 10.1667 111.769 10.46C112.262 10.7533 112.629 11.2 112.869 11.8C113.109 12.3867 113.229 13.1333 113.229 14.04V18.88C113.229 19.2933 113.115 19.6133 112.889 19.84C112.675 20.0533 112.369 20.16 111.969 20.16C111.569 20.16 111.262 20.0533 111.049 19.84C110.835 19.6133 110.729 19.2933 110.729 18.88V14.14C110.729 13.3933 110.602 12.8467 110.349 12.5C110.109 12.1533 109.695 11.98 109.109 11.98C108.455 11.98 107.942 12.2133 107.569 12.68C107.195 13.1333 107.009 13.7667 107.009 14.58V18.88C107.009 19.2933 106.902 19.6133 106.689 19.84C106.475 20.0533 106.169 20.16 105.769 20.16C105.369 20.16 105.055 20.0533 104.829 19.84C104.615 19.6133 104.509 19.2933 104.509 18.88V14.14C104.509 13.3933 104.382 12.8467 104.129 12.5C103.889 12.1533 103.482 11.98 102.909 11.98C102.255 11.98 101.742 12.2133 101.369 12.68C100.995 13.1333 100.809 13.7667 100.809 14.58V18.88C100.809 19.7333 100.389 20.16 99.5488 20.16ZM117.048 20.14C116.648 20.14 116.341 20.02 116.128 19.78C115.914 19.54 115.808 19.2067 115.808 18.78V11.44C115.808 11 115.914 10.6667 116.128 10.44C116.341 10.2 116.648 10.08 117.048 10.08C117.448 10.08 117.754 10.2 117.968 10.44C118.194 10.6667 118.308 11 118.308 11.44V18.78C118.308 19.2067 118.201 19.54 117.988 19.78C117.774 20.02 117.461 20.14 117.048 20.14ZM117.048 8.22C116.581 8.22 116.214 8.10667 115.948 7.88C115.694 7.64 115.568 7.31333 115.568 6.9C115.568 6.47333 115.694 6.14667 115.948 5.92C116.214 5.69333 116.581 5.58 117.048 5.58C117.528 5.58 117.894 5.69333 118.148 5.92C118.401 6.14667 118.528 6.47333 118.528 6.9C118.528 7.31333 118.401 7.64 118.148 7.88C117.894 8.10667 117.528 8.22 117.048 8.22ZM125.425 20.2C124.399 20.2 123.505 19.9933 122.745 19.58C121.985 19.1533 121.399 18.5533 120.985 17.78C120.572 17.0067 120.365 16.1 120.365 15.06C120.365 14.2733 120.479 13.5733 120.705 12.96C120.945 12.3333 121.285 11.8067 121.725 11.38C122.165 10.94 122.699 10.6067 123.325 10.38C123.952 10.14 124.652 10.02 125.425 10.02C125.865 10.02 126.339 10.08 126.845 10.2C127.365 10.32 127.852 10.52 128.305 10.8C128.519 10.9333 128.659 11.0933 128.725 11.28C128.792 11.4667 128.805 11.66 128.765 11.86C128.725 12.0467 128.639 12.2133 128.505 12.36C128.385 12.4933 128.232 12.58 128.045 12.62C127.859 12.6467 127.652 12.6 127.425 12.48C127.132 12.3067 126.832 12.18 126.525 12.1C126.219 12.0067 125.925 11.96 125.645 11.96C125.205 11.96 124.819 12.0333 124.485 12.18C124.152 12.3133 123.865 12.5133 123.625 12.78C123.399 13.0333 123.225 13.3533 123.105 13.74C122.985 14.1267 122.925 14.5733 122.925 15.08C122.925 16.0667 123.159 16.8467 123.625 17.42C124.105 17.98 124.779 18.26 125.645 18.26C125.925 18.26 126.212 18.22 126.505 18.14C126.812 18.06 127.119 17.9333 127.425 17.76C127.652 17.64 127.852 17.6 128.025 17.64C128.212 17.68 128.365 17.7733 128.485 17.92C128.605 18.0533 128.679 18.22 128.705 18.42C128.732 18.6067 128.705 18.7933 128.625 18.98C128.559 19.1667 128.425 19.32 128.225 19.44C127.785 19.7067 127.319 19.9 126.825 20.02C126.332 20.14 125.865 20.2 125.425 20.2ZM131.579 20.16C131.179 20.16 130.872 20.0533 130.659 19.84C130.446 19.6133 130.339 19.2933 130.339 18.88V7C130.339 6.58667 130.446 6.27333 130.659 6.06C130.872 5.84667 131.179 5.74 131.579 5.74C131.979 5.74 132.286 5.84667 132.499 6.06C132.726 6.27333 132.839 6.58667 132.839 7V14.38H132.879L136.179 10.9C136.446 10.6333 136.679 10.4267 136.879 10.28C137.079 10.1333 137.352 10.06 137.699 10.06C138.046 10.06 138.306 10.1533 138.479 10.34C138.666 10.5133 138.759 10.7267 138.759 10.98C138.759 11.2333 138.639 11.4867 138.399 11.74L134.919 15.42V14.38L138.739 18.5C138.979 18.7533 139.086 19.0133 139.059 19.28C139.046 19.5333 138.939 19.7467 138.739 19.92C138.539 20.08 138.286 20.16 137.979 20.16C137.606 20.16 137.306 20.0867 137.079 19.94C136.866 19.7933 136.626 19.5733 136.359 19.28L132.879 15.64H132.839V18.88C132.839 19.7333 132.419 20.16 131.579 20.16ZM144.184 20.2C143.477 20.2 142.844 20.0667 142.284 19.8C141.737 19.52 141.304 19.1467 140.984 18.68C140.677 18.2133 140.524 17.6867 140.524 17.1C140.524 16.38 140.711 15.8133 141.084 15.4C141.457 14.9733 142.064 14.6667 142.904 14.48C143.744 14.2933 144.871 14.2 146.284 14.2H147.284V15.64H146.304C145.477 15.64 144.817 15.68 144.324 15.76C143.831 15.84 143.477 15.98 143.264 16.18C143.064 16.3667 142.964 16.6333 142.964 16.98C142.964 17.42 143.117 17.78 143.424 18.06C143.731 18.34 144.157 18.48 144.704 18.48C145.144 18.48 145.531 18.38 145.864 18.18C146.211 17.9667 146.484 17.68 146.684 17.32C146.884 16.96 146.984 16.5467 146.984 16.08V13.78C146.984 13.1133 146.837 12.6333 146.544 12.34C146.251 12.0467 145.757 11.9 145.064 11.9C144.677 11.9 144.257 11.9467 143.804 12.04C143.364 12.1333 142.897 12.2933 142.404 12.52C142.151 12.64 141.924 12.6733 141.724 12.62C141.537 12.5667 141.391 12.46 141.284 12.3C141.177 12.1267 141.124 11.94 141.124 11.74C141.124 11.54 141.177 11.3467 141.284 11.16C141.391 10.96 141.571 10.8133 141.824 10.72C142.437 10.4667 143.024 10.2867 143.584 10.18C144.157 10.0733 144.677 10.02 145.144 10.02C146.104 10.02 146.891 10.1667 147.504 10.46C148.131 10.7533 148.597 11.2 148.904 11.8C149.211 12.3867 149.364 13.1467 149.364 14.08V18.88C149.364 19.2933 149.264 19.6133 149.064 19.84C148.864 20.0533 148.577 20.16 148.204 20.16C147.831 20.16 147.537 20.0533 147.324 19.84C147.124 19.6133 147.024 19.2933 147.024 18.88V17.92H147.184C147.091 18.3867 146.904 18.7933 146.624 19.14C146.357 19.4733 146.017 19.7333 145.604 19.92C145.191 20.1067 144.717 20.2 144.184 20.2ZM56.9 42C56.46 42 56.12 41.8867 55.88 41.66C55.6533 41.42 55.54 41.08 55.54 40.64V29.26C55.54 28.82 55.6533 28.4867 55.88 28.26C56.12 28.02 56.46 27.9 56.9 27.9H60.78C63.14 27.9 64.96 28.5067 66.24 29.72C67.5333 30.9333 68.18 32.6733 68.18 34.94C68.18 36.0733 68.0133 37.08 67.68 37.96C67.36 38.8267 66.88 39.56 66.24 40.16C65.6133 40.76 64.84 41.22 63.92 41.54C63.0133 41.8467 61.9667 42 60.78 42H56.9ZM58.1 39.88H60.62C61.4467 39.88 62.16 39.78 62.76 39.58C63.3733 39.3667 63.88 39.06 64.28 38.66C64.6933 38.2467 65 37.7333 65.2 37.12C65.4 36.4933 65.5 35.7667 65.5 34.94C65.5 33.2867 65.0933 32.0533 64.28 31.24C63.4667 30.4267 62.2467 30.02 60.62 30.02H58.1V39.88ZM75.3544 42.2C74.2477 42.2 73.2944 41.9933 72.4944 41.58C71.6944 41.1667 71.0744 40.58 70.6344 39.82C70.2077 39.06 69.9944 38.16 69.9944 37.12C69.9944 36.1067 70.201 35.22 70.6144 34.46C71.041 33.7 71.621 33.1067 72.3544 32.68C73.101 32.24 73.9477 32.02 74.8944 32.02C75.5877 32.02 76.2077 32.1333 76.7544 32.36C77.3144 32.5867 77.7877 32.9133 78.1744 33.34C78.5744 33.7667 78.8744 34.2867 79.0744 34.9C79.2877 35.5 79.3944 36.18 79.3944 36.94C79.3944 37.18 79.3077 37.3667 79.1344 37.5C78.9744 37.62 78.741 37.68 78.4344 37.68H72.0144V36.24H77.6344L77.3144 36.54C77.3144 35.9267 77.221 35.4133 77.0344 35C76.861 34.5867 76.601 34.2733 76.2544 34.06C75.921 33.8333 75.501 33.72 74.9944 33.72C74.4344 33.72 73.9544 33.8533 73.5544 34.12C73.1677 34.3733 72.8677 34.74 72.6544 35.22C72.4544 35.6867 72.3544 36.2467 72.3544 36.9V37.04C72.3544 38.1333 72.6077 38.9533 73.1144 39.5C73.6344 40.0333 74.3944 40.3 75.3944 40.3C75.741 40.3 76.1277 40.26 76.5544 40.18C76.9944 40.0867 77.4077 39.9333 77.7944 39.72C78.0744 39.56 78.321 39.4933 78.5344 39.52C78.7477 39.5333 78.9144 39.6067 79.0344 39.74C79.1677 39.8733 79.2477 40.04 79.2744 40.24C79.301 40.4267 79.261 40.62 79.1544 40.82C79.061 41.02 78.8944 41.1933 78.6544 41.34C78.1877 41.6333 77.6477 41.8533 77.0344 42C76.4344 42.1333 75.8744 42.2 75.3544 42.2ZM85.178 42.16C84.8446 42.16 84.5513 42.0733 84.298 41.9C84.058 41.7267 83.858 41.46 83.698 41.1L80.518 33.72C80.398 33.4267 80.3513 33.1533 80.378 32.9C80.418 32.6467 80.538 32.4467 80.738 32.3C80.9513 32.14 81.238 32.06 81.598 32.06C81.9046 32.06 82.1513 32.1333 82.338 32.28C82.5246 32.4133 82.6913 32.6733 82.838 33.06L85.538 39.8H84.938L87.718 33.04C87.8646 32.6667 88.0313 32.4133 88.218 32.28C88.418 32.1333 88.6846 32.06 89.018 32.06C89.3113 32.06 89.5446 32.14 89.718 32.3C89.8913 32.4467 89.998 32.6467 90.038 32.9C90.078 33.14 90.0313 33.4067 89.898 33.7L86.658 41.1C86.5113 41.46 86.3113 41.7267 86.058 41.9C85.818 42.0733 85.5246 42.16 85.178 42.16ZM96.3895 42.2C95.2829 42.2 94.3295 41.9933 93.5295 41.58C92.7295 41.1667 92.1095 40.58 91.6695 39.82C91.2429 39.06 91.0295 38.16 91.0295 37.12C91.0295 36.1067 91.2362 35.22 91.6495 34.46C92.0762 33.7 92.6562 33.1067 93.3895 32.68C94.1362 32.24 94.9829 32.02 95.9295 32.02C96.6229 32.02 97.2429 32.1333 97.7895 32.36C98.3495 32.5867 98.8229 32.9133 99.2095 33.34C99.6095 33.7667 99.9095 34.2867 100.11 34.9C100.323 35.5 100.43 36.18 100.43 36.94C100.43 37.18 100.343 37.3667 100.17 37.5C100.01 37.62 99.7762 37.68 99.4695 37.68H93.0495V36.24H98.6695L98.3495 36.54C98.3495 35.9267 98.2562 35.4133 98.0695 35C97.8962 34.5867 97.6362 34.2733 97.2895 34.06C96.9562 33.8333 96.5362 33.72 96.0295 33.72C95.4695 33.72 94.9895 33.8533 94.5895 34.12C94.2029 34.3733 93.9029 34.74 93.6895 35.22C93.4895 35.6867 93.3895 36.2467 93.3895 36.9V37.04C93.3895 38.1333 93.6429 38.9533 94.1495 39.5C94.6695 40.0333 95.4295 40.3 96.4295 40.3C96.7762 40.3 97.1629 40.26 97.5895 40.18C98.0295 40.0867 98.4429 39.9333 98.8295 39.72C99.1095 39.56 99.3562 39.4933 99.5695 39.52C99.7829 39.5333 99.9495 39.6067 100.07 39.74C100.203 39.8733 100.283 40.04 100.31 40.24C100.336 40.4267 100.296 40.62 100.19 40.82C100.096 41.02 99.9295 41.1933 99.6895 41.34C99.2229 41.6333 98.6829 41.8533 98.0695 42C97.4695 42.1333 96.9095 42.2 96.3895 42.2ZM105.749 42.2C104.643 42.2 103.809 41.8867 103.249 41.26C102.689 40.62 102.409 39.6867 102.409 38.46V29C102.409 28.5867 102.516 28.2733 102.729 28.06C102.943 27.8467 103.249 27.74 103.649 27.74C104.049 27.74 104.356 27.8467 104.569 28.06C104.796 28.2733 104.909 28.5867 104.909 29V38.34C104.909 38.9533 105.036 39.4067 105.289 39.7C105.556 39.9933 105.929 40.14 106.409 40.14C106.516 40.14 106.616 40.14 106.709 40.14C106.803 40.1267 106.896 40.1133 106.989 40.1C107.176 40.0733 107.303 40.1267 107.369 40.26C107.436 40.38 107.469 40.6333 107.469 41.02C107.469 41.3533 107.403 41.6133 107.269 41.8C107.136 41.9867 106.916 42.1 106.609 42.14C106.476 42.1533 106.336 42.1667 106.189 42.18C106.043 42.1933 105.896 42.2 105.749 42.2ZM113.158 42.2C112.145 42.2 111.265 41.9933 110.518 41.58C109.772 41.1667 109.192 40.58 108.778 39.82C108.365 39.0467 108.158 38.14 108.158 37.1C108.158 36.3133 108.272 35.6133 108.498 35C108.738 34.3733 109.078 33.84 109.518 33.4C109.958 32.9467 110.485 32.6067 111.098 32.38C111.712 32.14 112.398 32.02 113.158 32.02C114.172 32.02 115.052 32.2267 115.798 32.64C116.545 33.0533 117.125 33.64 117.538 34.4C117.952 35.16 118.158 36.06 118.158 37.1C118.158 37.8867 118.038 38.5933 117.798 39.22C117.572 39.8467 117.238 40.3867 116.798 40.84C116.358 41.28 115.832 41.62 115.218 41.86C114.605 42.0867 113.918 42.2 113.158 42.2ZM113.158 40.3C113.652 40.3 114.085 40.18 114.458 39.94C114.832 39.7 115.118 39.3467 115.318 38.88C115.532 38.4 115.638 37.8067 115.638 37.1C115.638 36.0333 115.412 35.24 114.958 34.72C114.505 34.1867 113.905 33.92 113.158 33.92C112.665 33.92 112.232 34.04 111.858 34.28C111.485 34.5067 111.192 34.86 110.978 35.34C110.778 35.8067 110.678 36.3933 110.678 37.1C110.678 38.1533 110.905 38.9533 111.358 39.5C111.812 40.0333 112.412 40.3 113.158 40.3ZM121.462 45.76C121.062 45.76 120.755 45.6533 120.542 45.44C120.329 45.2267 120.222 44.9133 120.222 44.5V33.32C120.222 32.9067 120.329 32.5933 120.542 32.38C120.755 32.1667 121.055 32.06 121.442 32.06C121.842 32.06 122.149 32.1667 122.362 32.38C122.575 32.5933 122.682 32.9067 122.682 33.32V34.88L122.462 34.28C122.662 33.6 123.069 33.0533 123.682 32.64C124.309 32.2267 125.035 32.02 125.862 32.02C126.715 32.02 127.462 32.2267 128.102 32.64C128.755 33.0533 129.262 33.64 129.622 34.4C129.982 35.1467 130.162 36.0467 130.162 37.1C130.162 38.14 129.982 39.0467 129.622 39.82C129.262 40.58 128.762 41.1667 128.122 41.58C127.482 41.9933 126.729 42.2 125.862 42.2C125.049 42.2 124.335 42 123.722 41.6C123.109 41.1867 122.695 40.6533 122.482 40H122.722V44.5C122.722 44.9133 122.609 45.2267 122.382 45.44C122.169 45.6533 121.862 45.76 121.462 45.76ZM125.162 40.3C125.655 40.3 126.089 40.18 126.462 39.94C126.835 39.7 127.122 39.3467 127.322 38.88C127.535 38.4 127.642 37.8067 127.642 37.1C127.642 36.0333 127.415 35.24 126.962 34.72C126.509 34.1867 125.909 33.92 125.162 33.92C124.669 33.92 124.235 34.04 123.862 34.28C123.489 34.5067 123.195 34.86 122.982 35.34C122.782 35.8067 122.682 36.3933 122.682 37.1C122.682 38.1533 122.909 38.9533 123.362 39.5C123.815 40.0333 124.415 40.3 125.162 40.3ZM133.494 42.16C133.094 42.16 132.787 42.0533 132.574 41.84C132.361 41.6133 132.254 41.2933 132.254 40.88V33.32C132.254 32.9067 132.361 32.5933 132.574 32.38C132.787 32.1667 133.087 32.06 133.474 32.06C133.861 32.06 134.161 32.1667 134.374 32.38C134.587 32.5933 134.694 32.9067 134.694 33.32V34.78L134.474 34.18C134.741 33.5133 135.154 32.9867 135.714 32.6C136.274 32.2133 136.941 32.02 137.714 32.02C138.501 32.02 139.147 32.2067 139.654 32.58C140.161 32.9533 140.514 33.5267 140.714 34.3H140.434C140.701 33.5933 141.141 33.04 141.754 32.64C142.367 32.2267 143.074 32.02 143.874 32.02C144.621 32.02 145.234 32.1667 145.714 32.46C146.207 32.7533 146.574 33.2 146.814 33.8C147.054 34.3867 147.174 35.1333 147.174 36.04V40.88C147.174 41.2933 147.061 41.6133 146.834 41.84C146.621 42.0533 146.314 42.16 145.914 42.16C145.514 42.16 145.207 42.0533 144.994 41.84C144.781 41.6133 144.674 41.2933 144.674 40.88V36.14C144.674 35.3933 144.547 34.8467 144.294 34.5C144.054 34.1533 143.641 33.98 143.054 33.98C142.401 33.98 141.887 34.2133 141.514 34.68C141.141 35.1333 140.954 35.7667 140.954 36.58V40.88C140.954 41.2933 140.847 41.6133 140.634 41.84C140.421 42.0533 140.114 42.16 139.714 42.16C139.314 42.16 139.001 42.0533 138.774 41.84C138.561 41.6133 138.454 41.2933 138.454 40.88V36.14C138.454 35.3933 138.327 34.8467 138.074 34.5C137.834 34.1533 137.427 33.98 136.854 33.98C136.201 33.98 135.687 34.2133 135.314 34.68C134.941 35.1333 134.754 35.7667 134.754 36.58V40.88C134.754 41.7333 134.334 42.16 133.494 42.16ZM154.573 42.2C153.466 42.2 152.513 41.9933 151.713 41.58C150.913 41.1667 150.293 40.58 149.853 39.82C149.426 39.06 149.213 38.16 149.213 37.12C149.213 36.1067 149.42 35.22 149.833 34.46C150.26 33.7 150.84 33.1067 151.573 32.68C152.32 32.24 153.166 32.02 154.113 32.02C154.806 32.02 155.426 32.1333 155.973 32.36C156.533 32.5867 157.006 32.9133 157.393 33.34C157.793 33.7667 158.093 34.2867 158.293 34.9C158.506 35.5 158.613 36.18 158.613 36.94C158.613 37.18 158.526 37.3667 158.353 37.5C158.193 37.62 157.96 37.68 157.653 37.68H151.233V36.24H156.853L156.533 36.54C156.533 35.9267 156.44 35.4133 156.253 35C156.08 34.5867 155.82 34.2733 155.473 34.06C155.14 33.8333 154.72 33.72 154.213 33.72C153.653 33.72 153.173 33.8533 152.773 34.12C152.386 34.3733 152.086 34.74 151.873 35.22C151.673 35.6867 151.573 36.2467 151.573 36.9V37.04C151.573 38.1333 151.826 38.9533 152.333 39.5C152.853 40.0333 153.613 40.3 154.613 40.3C154.96 40.3 155.346 40.26 155.773 40.18C156.213 40.0867 156.626 39.9333 157.013 39.72C157.293 39.56 157.54 39.4933 157.753 39.52C157.966 39.5333 158.133 39.6067 158.253 39.74C158.386 39.8733 158.466 40.04 158.493 40.24C158.52 40.4267 158.48 40.62 158.373 40.82C158.28 41.02 158.113 41.1933 157.873 41.34C157.406 41.6333 156.866 41.8533 156.253 42C155.653 42.1333 155.093 42.2 154.573 42.2ZM161.833 42.16C161.433 42.16 161.126 42.0533 160.913 41.84C160.7 41.6133 160.593 41.2933 160.593 40.88V33.32C160.593 32.9067 160.7 32.5933 160.913 32.38C161.126 32.1667 161.426 32.06 161.813 32.06C162.2 32.06 162.5 32.1667 162.713 32.38C162.926 32.5933 163.033 32.9067 163.033 33.32V34.68L162.813 34.18C163.106 33.4733 163.56 32.94 164.173 32.58C164.8 32.2067 165.506 32.02 166.293 32.02C167.08 32.02 167.726 32.1667 168.233 32.46C168.74 32.7533 169.12 33.2 169.373 33.8C169.626 34.3867 169.753 35.1333 169.753 36.04V40.88C169.753 41.2933 169.646 41.6133 169.433 41.84C169.22 42.0533 168.913 42.16 168.513 42.16C168.113 42.16 167.8 42.0533 167.573 41.84C167.36 41.6133 167.253 41.2933 167.253 40.88V36.16C167.253 35.4 167.106 34.8467 166.813 34.5C166.533 34.1533 166.093 33.98 165.493 33.98C164.76 33.98 164.173 34.2133 163.733 34.68C163.306 35.1333 163.093 35.74 163.093 36.5V40.88C163.093 41.7333 162.673 42.16 161.833 42.16ZM176.772 42.2C175.906 42.2 175.179 42.0533 174.592 41.76C174.019 41.4667 173.592 41.04 173.312 40.48C173.032 39.9067 172.892 39.2 172.892 38.36V34.1H171.852C171.532 34.1 171.286 34.02 171.112 33.86C170.939 33.6867 170.852 33.4533 170.852 33.16C170.852 32.8533 170.939 32.62 171.112 32.46C171.286 32.3 171.532 32.22 171.852 32.22H172.892V30.4C172.892 29.9867 172.999 29.6733 173.212 29.46C173.439 29.2467 173.752 29.14 174.152 29.14C174.552 29.14 174.859 29.2467 175.072 29.46C175.286 29.6733 175.392 29.9867 175.392 30.4V32.22H177.512C177.832 32.22 178.079 32.3 178.252 32.46C178.426 32.62 178.512 32.8533 178.512 33.16C178.512 33.4533 178.426 33.6867 178.252 33.86C178.079 34.02 177.832 34.1 177.512 34.1H175.392V38.22C175.392 38.86 175.532 39.34 175.812 39.66C176.092 39.98 176.546 40.14 177.172 40.14C177.399 40.14 177.599 40.12 177.772 40.08C177.946 40.04 178.099 40.0133 178.232 40C178.392 39.9867 178.526 40.04 178.632 40.16C178.739 40.2667 178.792 40.4933 178.792 40.84C178.792 41.1067 178.746 41.3467 178.652 41.56C178.572 41.76 178.419 41.9 178.192 41.98C178.019 42.0333 177.792 42.08 177.512 42.12C177.232 42.1733 176.986 42.2 176.772 42.2Z" fill="white"/>
<path d="M38.2543 3.729H33.7459C33.334 3.729 33.0001 4.06291 33.0001 4.4748V8.94959C33.0001 9.36149 33.334 9.69539 33.7459 9.69539H38.2543C38.6662 9.69539 39.0001 9.36149 39.0001 8.94959V4.4748C39.0001 4.06291 38.6662 3.729 38.2543 3.729Z" fill="url(#paint0_linear_9073_14475)"/>
<path d="M30.0042 0H25.4958C25.0839 0 24.75 0.333905 24.75 0.745798V5.22059C24.75 5.63248 25.0839 5.96639 25.4958 5.96639H30.0042C30.4161 5.96639 30.75 5.63248 30.75 5.22059V0.745798C30.75 0.333905 30.4161 0 30.0042 0Z" fill="url(#paint1_linear_9073_14475)"/>
<path d="M21.7542 8.2038H17.2458C16.8339 8.2038 16.5 8.5377 16.5 8.94959V13.4244C16.5 13.8363 16.8339 14.1702 17.2458 14.1702H21.7542C22.1661 14.1702 22.5 13.8363 22.5 13.4244V8.94959C22.5 8.5377 22.1661 8.2038 21.7542 8.2038Z" fill="url(#paint2_linear_9073_14475)"/>
<path d="M5.2542 20.1366H0.745798C0.333905 20.1366 0 20.4705 0 20.8824V43.2563C0 43.6682 0.333905 44.0021 0.745798 44.0021H5.2542C5.66609 44.0021 6 43.6682 6 43.2563V20.8824C6 20.4705 5.66609 20.1366 5.2542 20.1366Z" fill="url(#paint3_linear_9073_14475)"/>
<path d="M13.5042 13.4244H8.99575C8.58386 13.4244 8.24995 13.7583 8.24995 14.1702V43.2563C8.24995 43.6682 8.58386 44.0021 8.99575 44.0021H13.5042C13.916 44.0021 14.25 43.6682 14.25 43.2563V14.1702C14.25 13.7583 13.916 13.4244 13.5042 13.4244Z" fill="url(#paint4_linear_9073_14475)"/>
<path d="M21.7542 16.4076H17.2458C16.8339 16.4076 16.5 16.7415 16.5 17.1534V43.2563C16.5 43.6682 16.8339 44.0021 17.2458 44.0021H21.7542C22.1661 44.0021 22.5 43.6682 22.5 43.2563V17.1534C22.5 16.7415 22.1661 16.4076 21.7542 16.4076Z" fill="url(#paint5_linear_9073_14475)"/>
<path d="M30.0042 8.2038H25.4958C25.0839 8.2038 24.75 8.5377 24.75 8.9496V43.2563C24.75 43.6682 25.0839 44.0021 25.4958 44.0021H30.0042C30.4161 44.0021 30.75 43.6682 30.75 43.2563V8.94959C30.75 8.5377 30.4161 8.2038 30.0042 8.2038Z" fill="url(#paint6_linear_9073_14475)"/>
<path d="M38.2543 11.9328H33.7459C33.334 11.9328 33.0001 12.2667 33.0001 12.6786V43.2563C33.0001 43.6682 33.334 44.0021 33.7459 44.0021H38.2543C38.6662 44.0021 39.0001 43.6682 39.0001 43.2563V12.6786C39.0001 12.2667 38.6662 11.9328 38.2543 11.9328Z" fill="url(#paint7_linear_9073_14475)"/>
<path d="M5.2542 11.9328H0.745798C0.333905 11.9328 0 12.2667 0 12.6786V17.1534C0 17.5653 0.333905 17.8992 0.745798 17.8992H5.2542C5.66609 17.8992 6 17.5653 6 17.1534V12.6786C6 12.2667 5.66609 11.9328 5.2542 11.9328Z" fill="url(#paint8_linear_9073_14475)"/>
<path d="M13.5042 5.22058H8.99575C8.58386 5.22058 8.24995 5.55449 8.24995 5.96638V10.4412C8.24995 10.8531 8.58386 11.187 8.99575 11.187H13.5042C13.916 11.187 14.25 10.8531 14.25 10.4412V5.96638C14.25 5.55449 13.916 5.22058 13.5042 5.22058Z" fill="url(#paint9_linear_9073_14475)"/>
<defs>
<linearGradient id="paint0_linear_9073_14475" x1="36.0001" y1="3.729" x2="36.0001" y2="9.69539" gradientUnits="userSpaceOnUse">
<stop stop-color="#E079AF"/>
<stop offset="1" stop-color="#E89DC4"/>
</linearGradient>
<linearGradient id="paint1_linear_9073_14475" x1="27.75" y1="0" x2="27.75" y2="5.96639" gradientUnits="userSpaceOnUse">
<stop stop-color="#E079AF"/>
<stop offset="1" stop-color="#E89DC4"/>
</linearGradient>
<linearGradient id="paint2_linear_9073_14475" x1="19.5" y1="8.2038" x2="19.5" y2="14.1702" gradientUnits="userSpaceOnUse">
<stop stop-color="#E079AF"/>
<stop offset="1" stop-color="#E89DC4"/>
</linearGradient>
<linearGradient id="paint3_linear_9073_14475" x1="3" y1="44.0021" x2="3" y2="20.1366" gradientUnits="userSpaceOnUse">
<stop stop-color="#845CA5"/>
<stop offset="1" stop-color="#BBA6CD"/>
</linearGradient>
<linearGradient id="paint4_linear_9073_14475" x1="11.25" y1="44.0021" x2="11.25" y2="13.4244" gradientUnits="userSpaceOnUse">
<stop stop-color="#845CA5"/>
<stop offset="1" stop-color="#BBA6CD"/>
</linearGradient>
<linearGradient id="paint5_linear_9073_14475" x1="19.5" y1="44.0021" x2="19.5" y2="16.4076" gradientUnits="userSpaceOnUse">
<stop stop-color="#845CA5"/>
<stop offset="1" stop-color="#BBA6CD"/>
</linearGradient>
<linearGradient id="paint6_linear_9073_14475" x1="27.75" y1="44.0021" x2="27.75" y2="8.2038" gradientUnits="userSpaceOnUse">
<stop stop-color="#845CA5"/>
<stop offset="1" stop-color="#BBA6CD"/>
</linearGradient>
<linearGradient id="paint7_linear_9073_14475" x1="36.0001" y1="44.0021" x2="36.0001" y2="11.9328" gradientUnits="userSpaceOnUse">
<stop stop-color="#845CA5"/>
<stop offset="1" stop-color="#BBA6CD"/>
</linearGradient>
<linearGradient id="paint8_linear_9073_14475" x1="3" y1="11.9328" x2="3" y2="17.8992" gradientUnits="userSpaceOnUse">
<stop stop-color="#E079AF"/>
<stop offset="1" stop-color="#E89DC4"/>
</linearGradient>
<linearGradient id="paint9_linear_9073_14475" x1="11.25" y1="5.22058" x2="11.25" y2="11.187" gradientUnits="userSpaceOnUse">
<stop stop-color="#E079AF"/>
<stop offset="1" stop-color="#E89DC4"/>
</linearGradient>
</defs>
</svg>
